<svg width="226" height="228" viewBox="0 0 226 228" fill="none" xmlns="http://www.w3.org/2000/svg">
<path d="M147.925 108.068C147.972 108.272 148 108.499 148 108.698V141.975C148 142.832 147.561 143.641 146.834 144.067L119.935 160.163V192.026C119.935 192.883 119.496 193.692 118.769 194.119L62.6197 227.672C62.4984 227.749 62.3538 227.798 62.2045 227.846C62.1579 227.87 62.1066 227.895 62.0599 227.924C61.6727 228.025 61.2575 228.025 60.8703 227.924C60.7957 227.899 60.749 227.875 60.7024 227.846C60.5578 227.798 60.4365 227.744 60.3152 227.672L4.1896 194.119C3.46184 193.688 3 192.883 3 192.026V92.1997C3 91.9963 3.04665 91.7686 3.09797 91.57C3.12129 91.4925 3.14462 91.4441 3.17261 91.3666C3.21926 91.2406 3.27057 91.1147 3.31723 90.9888C3.34055 90.9113 3.41519 90.8628 3.46184 90.7853C3.53648 90.6836 3.60646 90.5819 3.6811 90.4802C3.75574 90.4317 3.82572 90.3784 3.90036 90.3058C3.99833 90.2283 4.0683 90.1556 4.16627 90.1023L32.2314 73.3233C32.9591 72.8922 33.8595 72.8922 34.5639 73.3233L62.6524 90.1023C62.7503 90.1508 62.8203 90.2283 62.895 90.3058C62.9696 90.3542 63.0629 90.4317 63.1375 90.4802C63.2122 90.5819 63.2588 90.6545 63.3335 90.7853C63.3801 90.8338 63.4548 90.9113 63.5014 90.9888C63.5481 91.1147 63.5994 91.2406 63.646 91.3666C63.6694 91.4441 63.7207 91.4925 63.7207 91.57C63.7953 91.7735 63.8186 91.9721 63.8186 92.1997V154.54L87.1907 140.565V108.703C87.1907 108.475 87.2373 108.272 87.2887 108.073C87.312 107.995 87.3353 107.923 87.3633 107.869C87.41 107.744 87.4613 107.618 87.5079 107.492C87.5546 107.39 87.6292 107.342 87.6759 107.264C87.7505 107.162 87.7972 107.061 87.8718 106.988C87.9464 106.915 88.0397 106.862 88.1144 106.814C88.189 106.736 88.259 106.663 88.357 106.61L116.445 89.8311C117.15 89.3758 118.05 89.3758 118.778 89.8311L146.843 106.61C146.941 106.659 147.011 106.736 147.109 106.814C147.184 106.862 147.254 106.915 147.328 106.988C147.403 107.061 147.473 107.162 147.548 107.264C147.594 107.342 147.669 107.39 147.692 107.492C147.767 107.618 147.79 107.744 147.837 107.869C147.883 107.918 147.911 107.995 147.935 108.073L147.925 108.068ZM143.307 140.56V112.912L133.492 118.763L119.935 126.886V154.535L143.307 140.56ZM115.27 190.612V162.934L101.904 170.83L63.8046 193.436V221.365L115.27 190.612ZM7.65575 96.409V190.612L59.1162 221.365V193.436L32.2174 177.616C32.1194 177.567 32.0495 177.49 31.9748 177.412C31.9002 177.364 31.8069 177.311 31.7556 177.238H31.7322C31.6576 177.16 31.6109 177.064 31.5363 176.986C31.4896 176.909 31.415 176.836 31.3683 176.734C31.3217 176.657 31.2704 176.531 31.2471 176.429C31.2004 176.327 31.1491 176.255 31.1258 176.153C31.1024 176.051 31.0791 175.925 31.0791 175.799C31.0558 175.698 31.0325 175.625 31.0325 175.523V110.383L17.4757 102.26L7.65575 96.409ZM33.3883 78.2204L10.0163 92.1949L33.3883 106.169L56.7604 92.1949L33.3883 78.2204ZM45.5595 165.463L59.1162 157.339V96.4138L49.3009 102.265L35.7209 110.388V171.314L45.5595 165.463ZM117.602 94.7185L94.2023 108.693L117.602 122.667L140.974 108.693L117.602 94.7185ZM115.27 126.886L91.8698 112.912V140.56L105.426 148.684L115.265 154.535L115.27 126.886ZM61.4534 189.226L112.891 158.749L89.5419 144.775L38.128 175.504L61.4534 189.226Z" fill="#FF2D20"/>
<path d="M60.2143 71.2659V82.7342" stroke="#FF2D20" stroke-width="1.5" stroke-linecap="round" stroke-linejoin="round"/>
<path d="M72.8571 61.709V92.2913" stroke="#FF2D20" stroke-width="1.5" stroke-linecap="round" stroke-linejoin="round"/>
<path d="M85.5 52.152V101.848" stroke="#FF2D20" stroke-width="1.5" stroke-linecap="round" stroke-linejoin="round"/>
<path d="M98.1429 61.709V92.2913" stroke="#FF2D20" stroke-width="1.5" stroke-linecap="round" stroke-linejoin="round"/>
<path d="M110.786 71.2659V82.7342" stroke="#FF2D20" stroke-width="1.5" stroke-linecap="round" stroke-linejoin="round"/>
</svg>
