<svg width="400" height="400" viewBox="0 0 468 438" fill="none" xmlns="http://www.w3.org/2000/svg">
<path d="M259.856 233.62C259.951 233.971 260 234.333 260 234.697V291.265C260 292.743 259.209 294.108 257.927 294.843L210.449 322.179V376.36C210.449 377.834 209.665 379.195 208.387 379.938L109.279 436.99C109.052 437.119 108.805 437.202 108.557 437.289C108.464 437.32 108.377 437.377 108.279 437.403C107.586 437.585 106.858 437.585 106.165 437.403C106.051 437.372 105.948 437.31 105.84 437.269C105.613 437.186 105.376 437.114 105.16 436.99L6.07258 379.938C4.79137 379.202 4 377.837 4 376.36V206.655C4 206.284 4.05156 205.923 4.14436 205.573C4.17529 205.454 4.24747 205.346 4.28872 205.227C4.36605 205.011 4.43823 204.789 4.55166 204.588C4.62899 204.454 4.74242 204.346 4.83522 204.222C4.9538 204.057 5.06207 203.887 5.20127 203.742C5.31985 203.624 5.47452 203.536 5.60857 203.433C5.75809 203.309 5.89213 203.175 6.06227 203.077H6.06743L55.6135 174.551C56.8902 173.816 58.4613 173.816 59.738 174.551L109.284 203.077H109.294C109.459 203.18 109.599 203.309 109.748 203.428C109.882 203.531 110.032 203.624 110.15 203.737C110.295 203.887 110.398 204.057 110.521 204.222C110.609 204.346 110.728 204.454 110.8 204.588C110.918 204.794 110.985 205.011 111.068 205.227C111.109 205.346 111.181 205.454 111.212 205.578C111.307 205.929 111.356 206.291 111.357 206.655V312.651L152.643 288.878V234.692C152.643 234.331 152.695 233.965 152.788 233.62C152.824 233.496 152.891 233.388 152.932 233.269C153.015 233.052 153.087 232.831 153.2 232.63C153.277 232.496 153.391 232.387 153.479 232.264C153.602 232.099 153.705 231.929 153.85 231.784C153.968 231.666 154.118 231.578 154.252 231.475C154.407 231.351 154.541 231.217 154.706 231.119H154.711L204.262 202.593C205.538 201.857 207.11 201.857 208.387 202.593L257.933 231.119C258.108 231.222 258.242 231.351 258.397 231.47C258.525 231.573 258.675 231.666 258.794 231.779C258.938 231.929 259.041 232.099 259.165 232.264C259.258 232.387 259.371 232.496 259.443 232.63C259.562 232.831 259.629 233.052 259.711 233.269C259.758 233.388 259.825 233.496 259.856 233.62ZM251.741 288.878V241.838L234.402 251.819L210.449 265.611V312.651L251.746 288.878H251.741ZM202.195 373.973V326.901L178.633 340.358L111.352 378.757V426.272L202.195 373.973ZM12.2594 213.796V373.973L103.092 426.267V378.762L55.6393 351.906L55.6238 351.896L55.6032 351.886C55.4433 351.793 55.3093 351.659 55.1598 351.545C55.0309 351.442 54.8814 351.36 54.768 351.246L54.7576 351.231C54.6236 351.102 54.5308 350.942 54.4174 350.798C54.3143 350.659 54.1905 350.54 54.108 350.396L54.1029 350.38C54.0101 350.226 53.9534 350.04 53.8863 349.865C53.8193 349.71 53.7317 349.566 53.6904 349.401V349.395C53.6389 349.2 53.6285 348.993 53.6079 348.792C53.5873 348.638 53.5461 348.483 53.5461 348.328V348.318V237.569L29.5979 223.772L12.2594 213.801V213.796ZM57.6809 182.893L16.3994 206.655L57.6706 230.418L98.947 206.65L57.6706 182.893H57.6809ZM79.1492 331.191L103.097 317.405V213.796L85.7587 223.777L61.8055 237.569V341.177L79.1492 331.191ZM206.324 210.935L165.048 234.697L206.324 258.46L247.595 234.692L206.324 210.935ZM202.195 265.611L178.241 251.819L160.903 241.838V288.878L184.851 302.664L202.195 312.651V265.611ZM107.217 371.616L167.76 337.053L198.024 319.781L156.778 296.034L109.289 323.375L66.0073 348.292L107.217 371.616Z" fill="#FF2D20"/>
<path d="M297.25 151.191L416.999 224.459C420.081 226.345 421.073 230.336 419.215 233.382L415.705 239.113C413.843 242.156 409.838 243.091 406.752 241.205L287.007 167.936" stroke="#FF2D20" stroke-width="8.25"/>
<path d="M314.674 123.495L270.275 196.058" stroke="#FF2D20" stroke-width="8.25"/>
<path d="M220.04 165.324L264.439 92.7611" stroke="#FF2D20" stroke-width="8.25"/>
<path d="M263.614 188.145L274.773 194.975C277.855 196.861 278.826 200.891 276.939 203.97L270.11 215.135C268.223 218.215 264.193 219.185 261.115 217.301L205.294 183.147C202.214 181.261 201.245 177.234 203.128 174.152L209.96 162.989C211.843 159.908 215.873 158.937 218.955 160.82L229.889 167.512" stroke="#FF2D20" stroke-width="8.25"/>
<path d="M270.873 100.53L259.94 93.8411C256.857 91.955 255.887 87.9248 257.773 84.8423L264.602 73.6806C266.489 70.5981 270.516 69.6284 273.598 71.5144L329.419 105.668C332.501 107.551 333.471 111.581 331.585 114.664L324.756 125.826C322.87 128.908 318.839 129.879 315.757 127.993L304.599 121.166" stroke="#FF2D20" stroke-width="8.25"/>
</svg>
